# xmcd
#
# Track frame offsets:
#	150
#	13810
#	28487
#	44881
#	57717
#	70128
#	85023
#	98130
#	114819
#	126476
#	143909
#	162746
#	173209
#	199090
#
# Disc length: 2868 seconds
#
# Revision: 2
# Processed by: cddbd v1.5.2PL0 Copyright (c) Steve Scherf et al.
# Submitted via: EasyCDDAExtractor 6.5.0.1
#
DISCID=d50b320e
DTITLE=Various Artist - שיר נולד
DYEAR=2006
DGENRE=
TTITLE0=אומני שיר נולד - גגים בויז - תנו לגדול בשקט
TTITLE1=אומנים שונים - הדר עוזרי - מלכת קסמים
TTITLE2=אומנים שונים - לירון לב ומישה קירקילן - גלי
TTITLE3=אומנים שונים - טל מוסרי - ילד פלא
TTITLE4=אומני שיר נולד - הדס מורנו, שיר ביטון וסשה גרישקוב - הילדה הכי יפה בגן
TTITLE5=אומנים שונים - אמיר פיי גוטמן - עודני ילד
TTITLE6=אומנים שונים - שיר ביטון - אמת או חובה
TTITLE7=אומנים שונים - יהודה סעדו - רציתי שתדע
TTITLE8=אומנים שונים - לירון לב, מישה קירקילן, טל מוסרי, הדר עוזרי, הדס מורנו 
TTITLE8=וסשה גרישקוב - איך שיר נולד
TTITLE9=אומנים שונים - יהודה לוי ונינט טייב - אמא
TTITLE10=אומנים שונים - דמיין
TTITLE11=אומנים שונים - ביחד
TTITLE12=אומנים שונים - מחרוזת העשורים
TTITLE13=אומני שיר נולד - מוסיקה
EXTD=
EXTT0=
EXTT1=
EXTT2=
EXTT3=
EXTT4=
EXTT5=
EXTT6=
EXTT7=
EXTT8=
EXTT9=
EXTT10=
EXTT11=
EXTT12=
EXTT13=
PLAYORDER=
